PathFileType	3	(X/Y/Z)	D:\VICON_DB\Goncalves\Pilot01\09-03-2026\bw_sq_140_02.trc
DataRate	CameraRate	NumFrames	NumMarkers	Units	OrigDataRate	OrigDataStartFrame	OrigNumFrames
200.0	200.0	11	34	mm	200.0	440	703	
Frame#	Time	LASI			RASI			LPSI			RPSI			LTHI			LTHAP			LTHAD			LKNE			LKNM			LTIB			LTIAP			LTIAD			LANK			LMED			LHEE			LTOE			LFMH			LSMH			LVMH			RTHI			RTHAP			RTHAD			RKNE			RKNM			RTIB			RTIAP			RTIAD			RANK			RMED			RHEE			RTOE			RFMH			RSMH			RVMH			
		X1	Y1	Z1	X2	Y2	Z2	X3	Y3	Z3	X4	Y4	Z4	X5	Y5	Z5	X6	Y6	Z6	X7	Y7	Z7	X8	Y8	Z8	X9	Y9	Z9	X10	Y10	Z10	X11	Y11	Z11	X12	Y12	Z12	X13	Y13	Z13	X14	Y14	Z14	X15	Y15	Z15	X16	Y16	Z16	X17	Y17	Z17	X18	Y18	Z18	X19	Y19	Z19	X20	Y20	Z20	X21	Y21	Z21	X22	Y22	Z22	X23	Y23	Z23	X24	Y24	Z24	X25	Y25	Z25	X26	Y26	Z26	X27	Y27	Z27	X28	Y28	Z28	X29	Y29	Z29	X30	Y30	Z30	X31	Y31	Z31	X32	Y32	Z32	X33	Y33	Z33	X34	Y34	Z34	
440	2.195	206.46181	558.04913	-1094.7612	198.73451	557.57947	-1359.449				386.89539	633.73535	-1262.0095	214.83043	554.90991	-999.93036	255.30412	564.84851	-1028.9877	218.98819	517.88342	-925.99988	129.50266	438.16568	-814.99091				183.65265	264.79514	-796.61804	77.773056	316.10736	-795.7262	146.5038	224.39943	-794.72107	259.22238	73.390602	-838.78516				271.89136	67.970055	-904.33594	184.58792	71.5429	-817.28198	124.46756	44.488323	-813.47748				173.07506	24.055801	-748.2641	199.57304	513.02533	-1520.6339	228.15005	568.43616	-1414.2939	167.74121	549.31848	-1452.6443	117.81676	437.52872	-1608.4318				151.38025	271.591	-1640.0463	66.567085	297.45456	-1631.8977	107.72066	223.20082	-1617.1962	258.42035	65.686806	-1575.3201				265.7316	64.506828	-1520.4943	176.06088	69.48204	-1610.1091	120.79257	50.057716	-1613.1406				168.99974	19.339363	-1668.7753
441	2.2	205.98448	560.96655	-1094.7179	198.23679	560.505	-1359.392				386.27014	636.94818	-1261.9874	214.14148	556.8078	-999.35834	254.53911	567.12048	-1028.552	218.57509	519.43018	-925.57782	129.66127	438.51474	-814.90295				183.8436	264.8515	-796.57269	78.059357	316.25174	-795.74371	146.66068	224.48785	-794.70892	259.24371	73.399071	-838.72473				271.9249	67.99646	-904.29877	184.60336	71.538116	-817.25928	124.46056	44.496132	-813.47717				173.08118	24.045334	-748.24817	199.09982	514.50208	-1520.9253	227.38724	570.65656	-1414.6318	166.98734	550.98395	-1453.1661	117.88322	437.99527	-1608.4174				151.54659	271.67569	-1639.9823	66.817902	297.59326	-1631.76	107.85029	223.30527	-1617.1398	258.45804	65.667603	-1575.3165				265.76855	64.507645	-1520.5216	176.08298	69.488922	-1610.1381	120.80324	50.058632	-1613.1288				168.99959	19.332642	-1668.7803
442	2.205	205.49181	563.92523	-1094.6733	197.72021	563.48657	-1359.3296				385.63898	640.19208	-1261.9626	213.44287	558.72815	-998.78308	253.76576	569.41602	-1028.1146	218.15976	520.99078	-925.16327	129.82881	438.87207	-814.83777				184.0415	264.91403	-796.54285	78.354866	316.40726	-795.77942	146.82335	224.58437	-794.70929	259.26477	73.407654	-838.66504				271.95865	68.021782	-904.26324	184.61832	71.533798	-817.23712	124.45459	44.503269	-813.47638				173.08707	24.035282	-748.23273	198.61082	515.99628	-1521.2178	226.59758	572.9054	-1414.9771	166.2144	552.66516	-1453.6925	117.94529	438.47238	-1608.3923				151.71484	271.76523	-1639.9084	67.070923	297.73944	-1631.6116	107.98151	223.4146	-1617.0741	258.49387	65.649033	-1575.3113				265.80466	64.50827	-1520.5475	176.10329	69.496628	-1610.1647	120.81222	50.059772	-1613.1161				168.99879	19.327133	-1668.7843
443	2.21	204.98502	566.92633	-1094.629	197.18465	566.52405	-1359.2631				385.00247	643.46686	-1261.9362	212.73529	560.67084	-998.20514	252.98524	571.73517	-1027.6761	217.74168	522.56482	-924.75726	130.0038	439.23743	-814.79773				184.24515	264.98273	-796.5304	78.658165	316.5733	-795.83649	146.99051	224.68898	-794.72424	259.28513	73.416046	-838.60748				271.99252	68.045799	-904.22974	184.63214	71.529991	-817.21606	124.44978	44.509556	-813.47522				173.09264	24.025904	-748.21814	198.10577	517.50763	-1521.5112	225.78085	575.18005	-1415.3295	165.42262	554.36176	-1454.2229	118.00213	438.96011	-1608.3549				151.8847	271.86002	-1639.8228	67.325699	297.8934	-1631.4502	108.11411	223.52916	-1616.9973	258.52789	65.631317	-1575.3043				265.83978	64.508629	-1520.5719	176.12155	69.505241	-1610.1886	120.81939	50.061066	-1613.1027				168.99733	19.322908	-1668.7867
444	2.215	204.46555	569.9718	-1094.5865	196.63011	569.61682	-1359.1937				384.36075	646.7724	-1261.9092	212.01933	562.63556	-997.62573	252.19855	574.07776	-1027.2377	217.31996	524.15179	-924.36096	130.18452	439.61066	-814.78552				184.45329	265.05777	-796.53772	78.967682	316.74908	-795.9187	147.16071	224.80164	-794.75586	259.30453	73.42411	-838.55292				272.02628	68.068237	-904.19879	184.644	71.526688	-817.19647	124.44622	44.514885	-813.47357				173.09775	24.017488	-748.20471	197.58423	519.03528	-1521.804	224.9371	577.47797	-1415.6887	164.61212	556.07349	-1454.7566	118.05309	439.45825	-1608.3024				152.05569	271.96027	-1639.7234	67.581627	298.05545	-1631.2737	108.24786	223.64931	-1616.9076	258.56015	65.614624	-1575.2952				265.87402	64.508759	-1520.5946	176.13748	69.51487	-1610.2096	120.82465	50.062481	-1613.0883				168.99519	19.320015	-1668.7881
445	2.22	203.93472	573.06342	-1094.5469	196.05667	572.76453	-1359.123				383.71432	650.10852	-1261.8828	211.29546	564.62189	-997.04626	251.40656	576.44421	-1026.7999	216.89372	525.7514	-923.97607	130.36932	439.9917	-814.80377				184.66464	265.13947	-796.56665	79.28196	316.93433	-796.02942	147.33261	224.92241	-794.80664	259.32272	73.431908	-838.50256				272.05957	68.088821	-904.17078	184.65323	71.523888	-817.17914	124.44401	44.51923	-813.47186				173.10228	24.010338	-748.19293	197.04572	520.57886	-1522.0955	224.0667	579.79688	-1416.0547	163.78296	557.79999	-1455.2925	118.09761	439.96667	-1608.2325				152.22722	272.06628	-1639.6089	67.837967	298.22583	-1631.0796	108.38241	223.7755	-1616.8025	258.59067	65.599182	-1575.2841				265.90732	64.50872	-1520.6155	176.15091	69.525543	-1610.2272	120.82794	50.064026	-1613.0726				168.99228	19.318497	-1668.788
446	2.225	203.39381	576.20294	-1094.5117	195.46468	575.96637	-1359.0521				383.06351	653.47473	-1261.8584	210.56398	566.62915	-996.46869	250.60979	578.83435	-1026.3646	216.46187	527.36365	-923.60382	130.55643	440.38077	-814.85468				184.87802	265.22815	-796.61938	79.59977	317.12878	-796.172	147.50494	225.05145	-794.87854	259.33954	73.439781	-838.45752				272.09213	68.107338	-904.14642	184.65933	71.521652	-817.16449	124.44316	44.522694	-813.47003				173.10614	24.00474	-748.18292	196.48976	522.13776	-1522.3839	223.17049	582.13507	-1416.4275	162.9352	559.54095	-1455.829	118.13525	440.48517	-1608.1425				152.39862	272.17862	-1639.4768	68.093971	298.40494	-1630.8654	108.51748	223.90819	-1616.6799	258.61945	65.585152	-1575.2706				265.9397	64.508629	-1520.6342	176.16171	69.537262	-1610.2415	120.82917	50.065769	-1613.0555				168.9886	19.318405	-1668.7863
447	2.23	202.84384	579.39178	-1094.4822	194.8548	579.22137	-1358.9824				382.40839	656.87128	-1261.8369	209.8252	568.65686	-995.89502	249.80853	581.24847	-1025.9329	216.02339	528.98853	-923.24597	130.74434	440.77808	-814.94061				185.09247	265.32446	-796.69806	79.920319	317.33261	-796.34973	147.67677	225.18912	-794.97351	259.3548	73.448128	-838.41827				272.12375	68.123512	-904.12622	184.66205	71.520103	-817.15308	124.4437	44.525448	-813.46844				173.10925	24.000948	-748.17529	195.91605	523.71136	-1522.6681	222.24971	584.49182	-1416.8066	162.06894	561.2959	-1456.3652	118.16573	441.01358	-1608.0299				152.56911	272.29776	-1639.3254	68.348831	298.59311	-1630.6282	108.65277	224.04787	-1616.5376	258.64648	65.572708	-1575.2549				265.97122	64.50869	-1520.6511	176.16978	69.550011	-1610.2518	120.82825	50.067799	-1613.0375				168.98407	19.319786	-1668.7832
448	2.235	202.28557	582.63074	-1094.4592	194.22795	582.5282	-1358.9147				381.7485	660.29852	-1261.8196	209.07919	570.70398	-995.32776	249.00262	583.68616	-1025.506	215.57729	530.62622	-922.90424	130.93172	441.18384	-815.06372				185.30728	265.42899	-796.80426	80.243263	317.54633	-796.56488	147.84749	225.3358	-795.09332	259.36844	73.457428	-838.38544				272.15421	68.137184	-904.11066	184.66141	71.519402	-817.14545	124.44564	44.527744	-813.46741				173.11153	23.999166	-748.1701	195.32434	525.29919	-1522.9467	221.30582	586.8667	-1417.1924	161.18428	563.06439	-1456.8993	118.18903	441.55142	-1607.8923				152.73804	272.42435	-1639.1532	68.601936	298.79068	-1630.3662	108.78802	224.19498	-1616.3738	258.67175	65.561989	-1575.2368				266.00186	64.509132	-1520.6656	176.17509	69.563728	-1610.2582	120.82502	50.070236	-1613.0182				168.97871	19.322668	-1668.7784
449	2.24	201.71954	585.92053	-1094.4435	193.58499	585.88538	-1358.8496				381.08313	663.75757	-1261.8079	208.32593	572.76953	-994.76953	248.19162	586.14728	-1025.0853	215.12273	532.27686	-922.58051	131.11765	441.59845	-815.22552				185.52211	265.54239	-796.93982	80.568771	317.77048	-796.81946	148.01688	225.49214	-795.23914	259.38037	73.468102	-838.3595				272.18332	68.14814	-904.10028	184.65762	71.519714	-817.14203	124.44894	44.52985	-813.46692				173.11298	23.999537	-748.1676	194.71484	526.90045	-1523.2177	220.34019	589.25946	-1417.5841	160.28159	564.84589	-1457.4297	118.20542	442.09827	-1607.7272				152.90489	272.55893	-1638.9586	68.852776	298.99823	-1630.0767	108.9231	224.3499	-1616.1865	258.69522	65.553055	-1575.2159				266.03152	64.510216	-1520.6777	176.17766	69.578392	-1610.2606	120.81934	50.073273	-1612.9977				168.97258	19.327078	-1668.7722
450	2.245	201.14601	589.26093	-1094.4357	192.92673	589.29138	-1358.7882				380.41144	667.24908	-1261.8027	207.56528	574.85223	-994.22302	247.37474	588.63123	-1024.6724	214.65907	533.94073	-922.27618	131.30153	442.02222	-815.42786				185.73691	265.66537	-797.10626	80.897453	318.00598	-797.11456	148.18497	225.65871	-795.41211	259.39066	73.480583	-838.34039				272.21109	68.156219	-904.0954	184.65109	71.521179	-817.14294	124.45359	44.53204	-813.46729				173.11356	24.002125	-748.16766	194.08804	528.5144	-1523.4803	219.3544	591.6701	-1417.9813	159.3613	566.63953	-1457.955	118.2153	442.65369	-1607.5328				153.06946	272.70224	-1638.7402	69.101097	299.21628	-1629.7579	109.05792	224.513	-1615.9745	258.71674	65.546005	-1575.1923				266.06033	64.512238	-1520.6873	176.17752	69.593925	-1610.2587	120.81103	50.077072	-1612.9763				168.9657	19.333069	-1668.7643
